<svg width="125" height="35" viewBox="0 0 125 35" fill="none" xmlns="http://www.w3.org/2000/svg">
<path d="M64.503 13.5753C65.6268 11.5707 66.7396 9.59998 67.8332 7.6186C68.0562 7.21464 68.3611 7.00704 68.8098 7.00489C69.219 7.00294 69.6289 7.00523 70.0374 7.02598C70.3577 7.04226 70.5347 7.20444 70.5891 7.5491C71.0202 10.2837 71.4667 13.0158 71.9076 15.7488C72.1732 17.3951 72.4384 19.0414 72.7012 20.6882C72.8064 21.3469 72.7054 21.4719 72.046 21.5227C70.8901 21.6116 70.8119 21.5605 70.622 20.4297C70.4709 19.5302 70.3463 18.6262 70.2039 17.6845C69.2332 17.6845 68.2754 17.6845 67.3177 17.6845C66.4511 17.6845 65.5837 17.7042 64.7181 17.6746C64.38 17.663 64.22 17.7928 64.075 18.0716C63.6111 18.9634 63.0773 19.8219 62.6607 20.7345C62.3665 21.3788 61.9125 21.5474 61.2765 21.5366C60.2358 21.5191 60.1357 21.3702 60.6374 20.4732C61.9184 18.183 63.2025 15.8946 64.503 13.5753ZM69.2663 11.3654C69.161 10.6506 69.0557 9.93576 68.931 9.08894C67.6292 11.4891 66.3943 13.7659 65.1354 16.0869C66.7873 16.0869 68.3624 16.0869 69.9841 16.0869C69.7447 14.5148 69.5112 12.9813 69.2663 11.3654Z" fill="#030303"/>
<path d="M84.9386 12.7855C85.5025 15.9445 84.8573 18.7428 82.4285 20.9641C80.9806 22.2884 78.3291 22.3579 76.8831 20.8473C76.842 20.8043 76.7836 20.7771 76.681 20.7067C76.4586 21.8075 76.2454 22.8659 76.0308 23.924C75.9355 24.3936 75.8716 24.8733 75.7237 25.3268C75.6648 25.5077 75.422 25.6358 75.2526 25.776C75.2093 25.8118 75.1267 25.8046 75.0616 25.813C73.8385 25.9715 73.6681 25.7877 73.9068 24.6415C74.8122 20.2939 75.7087 15.9445 76.6082 11.5957C76.7369 10.9737 76.9771 10.842 77.8567 10.9147C78.4084 10.9603 78.4839 11.0531 78.3742 11.5774C78.2974 11.9442 78.2096 12.3087 78.2021 12.7345C78.2885 12.6425 78.3742 12.5498 78.4614 12.4585C79.5028 11.3673 80.7352 10.6952 82.3188 10.7837C83.6352 10.8572 84.5119 11.5156 84.9386 12.7855ZM77.539 16.6337C77.4071 17.243 77.2706 17.8514 77.1473 18.4623C77.1232 18.5816 77.1021 18.7408 77.1613 18.8308C78.2269 20.4514 80.0975 20.8219 81.273 19.5739C82.8436 17.9064 83.314 15.8539 82.9943 13.6523C82.8493 12.6533 82.0262 12.23 81.0052 12.4973C80.6943 12.5787 80.3826 12.7072 80.1122 12.8763C78.7231 13.7452 77.9847 15.0498 77.539 16.6337Z" fill="#040404"/>
<path d="M93.3796 21.3324C91.6913 22.335 90.1765 22.1531 88.4077 20.7202C88.2603 21.4747 88.1179 22.1995 87.9772 22.9246C87.8221 23.7235 87.6589 24.5209 87.5191 25.3226C87.4661 25.6268 87.3126 25.7707 87.0264 25.7973C86.9334 25.806 86.8418 25.8306 86.7488 25.8386C85.6681 25.9321 85.5429 25.7828 85.753 24.7177C86.618 20.3349 87.4777 15.9509 88.3384 11.5672C88.4493 11.0024 89.5169 10.6305 89.9452 11.0293C90.0314 11.1096 90.0448 11.324 90.0226 11.4652C89.9597 11.8673 89.861 12.2635 89.8349 12.7281C89.9274 12.6304 90.0212 12.5341 90.1122 12.435C91.0953 11.3635 92.2535 10.6982 93.737 10.7832C95.2021 10.8671 96.1808 11.76 96.3686 13.3851C96.6671 15.9672 96.0858 18.3404 94.467 20.384C94.1787 20.7479 93.7649 21.0071 93.3796 21.3324ZM91.3603 20.2898C91.9639 20.2326 92.4511 19.944 92.864 19.5012C93.4834 18.8371 93.8387 18.025 94.0942 17.1629C94.4182 16.0693 94.6245 14.9583 94.4352 13.8087C94.2534 12.7043 93.528 12.2226 92.4751 12.5004C91.6686 12.7132 91.0767 13.2436 90.5513 13.8715C89.4113 15.2339 89.1247 16.9256 88.8263 18.6105C88.8097 18.7043 88.856 18.8318 88.9132 18.914C89.4933 19.7468 90.2158 20.3307 91.3603 20.2898Z" fill="#040404"/>
<path d="M11.9049 17.937C12.3651 15.7005 12.8053 13.5032 13.2792 11.3124C13.3168 11.1388 13.5809 11.0025 13.7545 10.8655C13.8095 10.8221 13.9119 10.8289 13.9934 10.8193C15.1962 10.6779 15.3607 10.8399 15.1345 11.9343C14.7533 13.7787 14.3637 15.6216 14.0016 17.4693C13.9216 17.8775 13.9058 18.3046 13.9226 18.7207C13.9607 19.668 14.6115 20.1147 15.5915 19.8768C16.7861 19.5869 17.5535 18.795 18.1977 17.8605C19.0588 16.6114 19.2597 15.169 19.5622 13.7559C19.735 12.9492 19.878 12.136 20.0831 11.3369C20.1295 11.1563 20.3562 10.9243 20.5389 10.887C20.9156 10.8102 21.3196 10.8292 21.7106 10.8459C22.0421 10.8601 22.1387 11.0361 22.0695 11.3588C21.3868 14.5397 20.7161 17.7229 20.0493 20.9069C19.9831 21.2228 19.7757 21.3537 19.4723 21.3844C19.2605 21.4059 19.0441 21.4178 18.8323 21.4022C18.2932 21.3626 18.2109 21.2455 18.316 20.746C18.3837 20.4238 18.4397 20.0994 18.4911 19.8279C17.7618 20.2919 17.0755 20.7867 16.3315 21.1854C15.6094 21.5723 14.7835 21.6065 13.9735 21.4987C12.7001 21.3293 11.9337 20.5184 11.8611 19.2816C11.8357 18.8489 11.8806 18.4125 11.9049 17.937Z" fill="#E26146"/>
<path d="M34.3864 10.9226C34.4342 11.1024 34.4887 11.2683 34.4598 11.4185C34.07 13.4463 33.6593 15.4702 33.2778 17.4994C33.2011 17.907 33.1898 18.3344 33.2084 18.75C33.2488 19.6526 33.842 20.0923 34.7364 19.8997C35.6068 19.7122 36.2527 19.1809 36.812 18.5266C37.8588 17.3019 38.2103 15.8095 38.4955 14.2884C38.6786 13.3122 38.8866 12.3406 39.0711 11.3646C39.128 11.0632 39.278 10.8888 39.5912 10.8604C39.6377 10.8561 39.6826 10.8364 39.7291 10.8298C40.9131 10.6621 41.0917 10.843 40.8613 11.9814C40.2637 14.9332 39.6711 17.8859 39.0531 20.8334C39.0119 21.0296 38.7919 21.3131 38.6255 21.3348C38.2392 21.3852 37.8324 21.314 37.4412 21.2492C37.4017 21.2426 37.3848 20.9403 37.4046 20.781C37.4454 20.4522 37.5181 20.1273 37.5856 19.7576C37.0048 20.1964 36.5148 20.6266 35.9674 20.9667C35.0812 21.5174 34.0955 21.6788 33.0691 21.4531C31.9157 21.1994 31.2434 20.4563 31.25 19.2851C31.2552 18.377 31.3797 17.4612 31.5394 16.5642C31.8385 14.8837 32.2265 13.2186 32.5234 11.5378C32.6182 11.0011 32.896 10.8187 33.373 10.8212C33.7002 10.8229 34.0272 10.873 34.3864 10.9226Z" fill="#E26146"/>
<path d="M56.3434 19.9326C56.9595 19.7695 57.5389 19.6275 58.1081 19.4551C58.487 19.3404 58.6232 19.4671 58.6158 19.8176C58.6018 20.4824 58.289 20.9305 57.6194 21.1308C56.1757 21.5627 54.6984 21.682 53.2109 21.3961C51.7613 21.1175 50.8312 20.205 50.6941 18.7632C50.4565 16.264 51.0893 13.9938 53.0112 12.1674C54.4046 10.8432 56.9815 10.3935 58.7077 11.1261C59.6728 11.5358 60.2899 12.1978 60.3411 13.2283C60.3899 14.2118 59.9522 14.9847 59.0861 15.5313C58.1707 16.109 57.1328 16.3485 56.0632 16.4382C55.0975 16.5192 54.1243 16.5325 53.154 16.5451C52.8402 16.5491 52.7046 16.6465 52.6982 16.9342C52.6891 17.3482 52.6354 17.7651 52.6704 18.1753C52.7723 19.371 53.4275 19.9736 54.7071 20.0276C55.2365 20.0499 55.7705 19.9728 56.3434 19.9326ZM58.0362 14.2602C58.6168 13.406 58.3388 12.6169 57.3628 12.3483C55.6035 11.8643 53.343 13.3918 53.2135 15.247C54.1522 15.1916 55.0822 15.1618 56.0061 15.0742C56.7348 15.0052 57.4358 14.8183 58.0362 14.2602Z" fill="#E26146"/>
<path d="M1.81925 19.6686C2.52448 16.1694 3.21702 12.7085 3.91149 9.24803C4.01373 8.73859 4.12043 8.22994 4.23361 7.72282C4.34215 7.23651 4.65778 7.00997 5.15371 7.01024C7.24283 7.01134 9.33196 7.01285 11.421 7.00434C11.7225 7.00312 11.8755 7.11344 11.8507 7.41556C11.8315 7.64963 11.8049 7.88525 11.7542 8.11414C11.6626 8.52726 11.403 8.70242 10.9668 8.69792C9.4951 8.68274 8.02295 8.70441 6.55133 8.68436C6.14809 8.67887 5.97904 8.78372 5.90476 9.21085C5.67809 10.5142 5.39001 11.8069 5.1292 13.1044C5.10811 13.2094 5.11275 13.3194 5.10084 13.4947C5.30933 13.4947 5.49426 13.4947 5.67919 13.4947C7.04028 13.4951 8.40156 13.5084 9.76235 13.4884C10.2117 13.4818 10.3094 13.6999 10.2775 14.0729C10.2008 14.9712 9.99392 15.1649 9.10542 15.1654C7.66645 15.1661 6.22747 15.1656 4.72721 15.1656C4.56896 15.926 4.40904 16.6744 4.25811 17.4245C4.02497 18.5831 3.79164 19.7418 3.57248 20.9031C3.5118 21.2247 3.36516 21.4226 3.02761 21.4523C3.01199 21.4536 2.99677 21.4593 2.98126 21.4624C1.72603 21.7155 1.45762 21.4656 1.69379 20.2631C1.73024 20.0775 1.76932 19.8924 1.81925 19.6686Z" fill="#E26146"/>
<path d="M24.218 18.1193C24.6147 16.2206 25.0067 14.3631 25.4138 12.4339C24.9983 12.4339 24.6238 12.4235 24.2503 12.4367C23.8489 12.451 23.685 12.3014 23.7094 11.9063C23.7604 11.0819 24.0015 10.8496 24.8843 10.8483C25.752 10.847 25.7517 10.847 25.9254 10.0385C26.0177 9.6087 26.1362 9.18223 26.1971 8.74847C26.2536 8.34571 26.4971 8.18629 26.8833 8.13458C28.1299 7.9677 28.327 8.156 28.0924 9.30433C27.9923 9.79435 27.8879 10.2836 27.7697 10.8488C28.5751 10.8488 29.3295 10.8471 30.0839 10.8494C30.6679 10.8511 30.7385 10.925 30.7042 11.4779C30.6612 12.1684 30.3744 12.4324 29.6583 12.4343C28.9316 12.4363 28.205 12.4348 27.4398 12.4348C27.1577 13.7498 26.873 15.0338 26.6093 16.3218C26.4457 17.1209 26.2658 17.9214 26.18 18.7295C26.0725 19.7418 26.603 20.1399 27.6692 19.921C27.927 19.8681 28.1773 19.7826 28.4318 19.7145C28.7282 19.6352 28.867 19.7409 28.8778 20.0349C28.9085 20.8672 28.5394 21.3728 27.6664 21.485C27.0371 21.5659 26.3772 21.5783 25.7499 21.4942C24.753 21.3605 24.1725 20.7142 24.1237 19.7515C24.097 19.2237 24.1798 18.691 24.218 18.1193Z" fill="#E26147"/>
<path d="M43.3802 16.7343C43.7376 14.9277 44.0766 13.1579 44.4468 11.3948C44.4811 11.2312 44.6993 11.0885 44.8602 10.9765C44.9514 10.913 45.0991 10.9216 45.2223 10.915C46.0746 10.869 46.1669 10.9748 46.0207 11.8118C45.9792 12.0492 45.9418 12.2872 45.8848 12.6322C46.2476 12.2482 46.5136 11.9287 46.8181 11.6516C47.6264 10.9163 48.5501 10.5849 49.6478 10.8877C50.0163 10.9893 50.1707 11.1889 50.084 11.568C50.0494 11.7193 50.0386 11.8761 50.0029 12.027C49.8185 12.806 49.7158 12.8675 48.9625 12.6321C48.4426 12.4697 47.9893 12.5887 47.5669 12.914C46.1993 13.9672 45.5166 15.4144 45.1846 17.061C44.9267 18.34 44.6734 19.6201 44.4375 20.9034C44.3714 21.2629 44.2038 21.4645 43.8402 21.4977C43.7785 21.5033 43.7176 21.5182 43.6559 21.5238C42.5606 21.6241 42.441 21.4967 42.6488 20.43C42.8863 19.2104 43.1295 17.992 43.3802 16.7343Z" fill="#E26247"/>
<path d="M46.1898 26.97C46.4199 27.392 46.6241 27.7901 46.8752 28.2798C46.4545 28.3271 46.1948 28.3563 45.9411 28.3848C45.5095 27.2468 44.5945 26.8473 43.6049 27.3429C42.961 27.6654 42.9136 28.2978 43.5249 28.6879C43.8327 28.8844 44.1786 29.0224 44.5099 29.1815C44.7548 29.299 45.0069 29.4018 45.2505 29.5216C45.9223 29.8521 46.347 30.3399 46.2757 31.1419C46.2064 31.9214 45.731 32.3805 45.0478 32.647C44.3233 32.9296 43.5711 32.9229 42.8294 32.7198C41.8694 32.4569 41.4156 31.7639 41.4965 30.6866C41.7503 30.6673 42.0116 30.6474 42.2679 30.6279C42.4976 31.8918 43.5461 32.4524 44.6935 31.9583C45.0639 31.7987 45.3592 31.5385 45.3847 31.1121C45.4087 30.7133 45.1426 30.4674 44.8084 30.3033C44.335 30.0708 43.8516 29.8586 43.3792 29.6244C42.518 29.1972 42.1433 28.6108 42.2422 27.87C42.3406 27.1332 42.8641 26.6253 43.7925 26.4667C44.6324 26.3232 45.4559 26.382 46.1898 26.97Z" fill="white"/>
<path d="M59.5349 28.8677C59.8479 28.75 60.1428 28.6639 60.5123 28.556C60.588 29.6617 60.6547 30.634 60.7301 31.734C60.8753 31.4257 60.9737 31.2085 61.0791 30.9945C61.3764 30.3912 61.7205 29.8047 61.9621 29.1819C62.1632 28.6635 62.4857 28.5437 63.039 28.6954C62.7149 29.3383 62.3962 29.9761 62.0723 30.6115C61.7803 31.1845 61.4825 31.7548 61.1876 32.3265C60.8773 32.9279 60.8775 32.9279 60.0804 32.7949C60.0194 31.8508 59.9579 30.8974 59.8963 29.944C59.8659 29.9382 59.8354 29.9325 59.805 29.9268C59.5516 30.4544 59.2975 30.9817 59.0451 31.5097C58.9227 31.7658 58.8052 32.024 58.6822 32.2799C58.3744 32.92 58.3736 32.9196 57.5601 32.801C57.4129 31.4469 57.2647 30.0827 57.1123 28.6803C57.3841 28.6803 57.6075 28.6803 57.892 28.6803C57.9909 29.6538 58.0907 30.6347 58.1974 31.6836C58.6542 30.7197 59.0856 29.8095 59.5349 28.8677Z" fill="white"/>
<path d="M81.6339 31.1488C81.7223 31.7231 81.8068 32.2542 81.8967 32.8195C81.6182 32.8195 81.3763 32.8195 81.0669 32.8195C80.9674 32.2542 80.8642 31.6673 80.7523 31.0307C80.0143 31.0307 79.2915 31.0205 78.5696 31.0422C78.4657 31.0453 78.3362 31.1819 78.27 31.2918C78.0953 31.582 77.948 31.8909 77.7914 32.1933C77.4071 32.9353 77.4074 32.9355 76.5088 32.7924C76.941 31.9778 77.3636 31.1809 77.7865 30.3842C78.3565 29.3105 78.9754 28.2621 79.4794 27.1543C79.7973 26.4556 80.2272 26.2876 80.9137 26.4681C81.1499 27.9977 81.39 29.5517 81.6339 31.1488ZM79.6378 30.2875C79.9567 30.2875 80.2755 30.2875 80.6426 30.2875C80.5146 29.3088 80.3957 28.3993 80.2654 27.4026C79.7622 28.3898 79.2985 29.2995 78.7949 30.2876C79.0993 30.2876 79.324 30.2876 79.6378 30.2875Z" fill="white"/>
<path d="M87.2239 29.6273C87.391 30.6295 87.2318 31.5285 86.5187 32.2955C85.7212 33.1534 84.6768 33.1878 83.7708 32.3399C83.6491 32.8741 83.533 33.3672 83.4249 33.8617C83.2779 34.5348 83.2805 34.5353 82.4355 34.4344C82.8713 32.5224 83.3059 30.6151 83.7451 28.6879C83.9932 28.6879 84.2155 28.6879 84.4773 28.6879C84.4939 28.782 84.5125 28.8863 84.532 28.9967C85.6635 28.3582 86.6244 28.2909 87.2239 29.6273ZM84.5545 29.7468C84.1801 30.274 83.983 30.8481 84.0478 31.4786C84.0872 31.8625 84.2979 32.1478 84.7176 32.2781C85.1235 32.4041 85.4557 32.2786 85.735 32.0162C86.2256 31.5554 86.4157 30.9741 86.4578 30.3543C86.494 29.8199 86.2177 29.3537 85.8216 29.2452C85.2932 29.1005 84.9096 29.3245 84.5545 29.7468Z" fill="white"/>
<path d="M87.2842 34.3841C87.6556 32.4655 88.0356 30.5846 88.4238 28.6632C88.6923 28.7646 89.0933 28.4056 89.1156 29.0252C89.2962 28.9098 89.4552 28.7868 89.6311 28.6997C90.426 28.3059 91.341 28.7532 91.523 29.658C91.6925 30.5003 91.5661 31.3164 91.0866 32.0388C90.3708 33.1172 89.4558 33.235 88.4294 32.3753C88.3264 32.8948 88.2288 33.3965 88.1271 33.8974C87.9951 34.5478 87.966 34.5648 87.2842 34.3841ZM90.5275 29.4104C90.0776 29.1216 89.7028 29.1325 89.3528 29.5076C88.8218 30.0768 88.5996 30.7788 88.7053 31.5528C88.8064 32.2931 89.5517 32.5618 90.1233 32.096C90.7988 31.5453 91.0253 30.2207 90.5275 29.4104Z" fill="white"/>
<path d="M21.4344 29.0719C22.2436 28.4686 23.1276 28.4453 24.0279 28.7413C24.6481 28.9452 24.8625 29.339 24.7608 29.9204C24.6881 30.3355 24.5724 30.7446 24.5002 31.1597C24.4094 31.6818 24.3434 32.2074 24.2618 32.7655C24.0944 32.7655 23.8398 32.7655 23.5671 32.7655C23.5212 32.6506 23.4729 32.5295 23.459 32.4947C22.9108 32.6247 22.3853 32.8144 21.8444 32.861C21.175 32.9187 20.6232 32.5047 20.5105 31.9904C20.3659 31.3306 20.6622 30.7483 21.334 30.5321C21.7221 30.4072 22.1545 30.3884 22.5691 30.3352C22.8581 30.2981 23.159 30.3123 23.4387 30.2482C23.6118 30.2084 23.8796 30.0705 23.8854 29.9668C23.8966 29.767 23.8182 29.4914 23.6596 29.3695C23.2394 29.0469 22.3435 29.1373 22.036 29.5689C21.7332 29.9937 21.378 29.9255 20.8633 29.8497C21.0671 29.5675 21.2381 29.3307 21.4344 29.0719ZM21.9211 31.0054C21.5644 31.1098 21.2616 31.3214 21.3403 31.6567C21.3926 31.8793 21.6494 32.1668 21.8831 32.2335C22.7603 32.484 23.7518 31.6204 23.5841 30.7888C23.0549 30.8528 22.525 30.9168 21.9211 31.0054Z" fill="white"/>
<path d="M65.3085 29.2157C64.675 29.1593 64.2148 29.305 63.8447 29.7755C63.7248 29.9278 63.3017 29.889 63.0173 29.9376C62.9801 29.8914 62.9428 29.8451 62.9056 29.7988C63.1235 29.5292 63.2991 29.2183 63.5676 28.9982C64.2241 28.4599 65.5654 28.4142 66.3115 28.8551C66.7275 29.101 66.8649 29.4539 66.7915 29.8744C66.7166 30.3038 66.5993 30.7274 66.5246 31.1569C66.4337 31.6792 66.3679 32.2051 66.286 32.7645C66.1213 32.7645 65.8671 32.7645 65.5922 32.7645C65.5472 32.6522 65.4988 32.5315 65.4834 32.4932C64.9377 32.6234 64.4136 32.8137 63.874 32.8608C63.2047 32.9193 62.6523 32.5076 62.5371 31.9944C62.3897 31.338 62.6855 30.75 63.3538 30.5327C63.741 30.4068 64.1734 30.3893 64.5872 30.3335C64.8274 30.3011 65.0715 30.2921 65.3133 30.2679C65.5794 30.2413 65.8876 30.2844 65.9456 29.9304C66.002 29.5859 65.8443 29.3715 65.4866 29.2607C65.4409 29.2466 65.3949 29.2332 65.3085 29.2157ZM63.6695 31.1187C63.3863 31.3198 63.2512 31.5632 63.4089 31.8828C63.5732 32.2159 63.8907 32.2846 64.2565 32.2678C65.0494 32.2315 65.678 31.5712 65.6363 30.7894C65.1229 30.8473 64.6103 30.9002 64.0997 30.9663C63.9739 30.9826 63.855 31.0417 63.6695 31.1187Z" fill="white"/>
<path d="M101.787 32.8664C100.849 32.8595 100.298 32.4961 100.228 31.8685C100.14 31.0862 100.547 30.5772 101.468 30.4163C102.024 30.3192 102.604 30.3288 103.163 30.2432C103.343 30.2158 103.622 30.0432 103.628 29.9268C103.639 29.733 103.528 29.4617 103.361 29.346C102.93 29.0479 102.064 29.1462 101.769 29.5654C101.467 29.9946 101.108 29.9202 100.661 29.8589C100.82 29.345 101.141 28.9748 101.657 28.7703C102.358 28.4922 103.085 28.4842 103.794 28.75C104.383 28.9706 104.602 29.3359 104.503 29.9027C104.426 30.3463 104.297 30.7829 104.22 31.2265C104.135 31.7214 104.081 32.2207 104.009 32.755C103.842 32.755 103.587 32.755 103.307 32.755C103.263 32.6494 103.213 32.53 103.177 32.444C102.725 32.5851 102.277 32.7249 101.787 32.8664ZM102.894 30.8501C102.446 30.912 101.988 30.9429 101.552 31.0455C101.208 31.1264 101.009 31.3805 101.062 31.7111C101.118 32.0564 101.378 32.2332 101.769 32.2611C102.644 32.3236 103.385 31.6493 103.355 30.7832C103.228 30.8028 103.104 30.8219 102.894 30.8501Z" fill="white"/>
<path d="M35.6616 30.9279C35.5261 30.9993 35.3446 31.1039 35.3597 31.1367C35.5146 31.4713 35.6273 31.859 35.8984 32.1038C36.2275 32.401 36.6666 32.2105 37.0288 32.027C37.1669 31.957 37.3268 31.8599 37.3868 31.7398C37.6156 31.2816 38.0034 31.3121 38.4348 31.4252C38.3594 32.0961 37.4741 32.788 36.6031 32.8567C35.5975 32.9361 34.8126 32.5224 34.5913 31.7496C34.3088 30.7627 34.5791 29.8781 35.3654 29.1429C36.0151 28.5354 37.1027 28.3884 37.8956 28.7541C38.577 29.0684 38.9299 29.8336 38.7431 30.6811C38.7209 30.7821 38.4893 30.9133 38.3513 30.9167C37.4704 30.9381 36.5885 30.9276 35.6616 30.9279ZM37.4286 30.3348C37.604 30.3348 37.7795 30.3348 37.9529 30.3348C37.9786 29.639 37.6642 29.2434 37.082 29.1915C36.3421 29.1255 35.7014 29.6033 35.575 30.3348C36.164 30.3348 36.7493 30.3348 37.4286 30.3348Z" fill="white"/>
<path d="M71.0424 29.5143C71.4967 28.8096 72.1067 28.5096 72.8929 28.5618C73.8959 28.6284 74.6355 29.8072 74.2494 30.7677C74.2155 30.8521 74.0274 30.9099 73.9097 30.9121C73.0944 30.9272 72.2788 30.924 71.4633 30.9283C71.4374 30.9284 71.4116 30.9459 71.3859 30.9558C71.2997 31.5105 71.4976 31.986 71.8886 32.164C72.2507 32.3288 72.7986 32.1297 73.1145 31.7184C73.4453 31.2878 73.4453 31.2878 74.0069 31.436C73.8341 32.3484 72.853 32.9993 71.8861 32.8432C71.0172 32.7029 70.4487 31.8617 70.6091 30.8552C70.6807 30.4057 70.8829 29.9785 71.0424 29.5143ZM71.7611 29.6916C71.6691 29.8807 71.5771 30.0698 71.4643 30.3018C72.2097 30.3018 72.891 30.3018 73.5711 30.3018C73.6216 29.4328 73.0483 28.9371 72.3405 29.2393C72.1407 29.3246 71.9782 29.5036 71.7611 29.6916Z" fill="white"/>
<path d="M14.3386 28.556C15.4979 28.6094 16.1396 29.2087 16.163 30.2191C16.193 31.5176 15.469 32.5036 14.274 32.7916C12.9152 33.119 11.8232 32.3403 11.8542 31.0659C11.8835 29.8571 12.611 28.8746 13.6802 28.62C13.8777 28.573 14.0897 28.576 14.3386 28.556ZM13.6254 29.3293C12.8863 29.8102 12.6702 30.4976 12.7126 31.2773C12.7355 31.698 12.9297 32.0485 13.3887 32.1954C13.8346 32.3381 14.2456 32.2195 14.5768 31.9224C15.0787 31.4724 15.3212 30.9131 15.3191 30.2764C15.3162 29.3419 14.6436 28.9417 13.6254 29.3293Z" fill="white"/>
<path d="M113.414 29.2979C114.145 30.7196 113.333 32.4292 111.784 32.794C110.42 33.1153 109.337 32.3369 109.376 31.0634C109.413 29.8696 110.123 28.916 111.175 28.6485C112.092 28.4151 112.828 28.6207 113.414 29.2979ZM111.817 29.176C111.285 29.1779 110.85 29.4048 110.652 29.8172C110.436 30.2667 110.31 30.7669 110.245 31.2559C110.191 31.6662 110.432 32.0139 110.875 32.1914C111.272 32.3504 111.799 32.2265 112.141 31.8931C112.669 31.379 112.905 30.7683 112.828 30.0664C112.771 29.558 112.471 29.2747 111.817 29.176Z" fill="white"/>
<path d="M50.6062 32.0353C49.8091 32.825 48.8281 33.0752 47.9175 32.6853C47.6303 32.5624 47.3394 32.3498 47.173 32.1088C46.3846 30.9673 47.2537 29.0223 48.6881 28.6521C50.1401 28.2774 51.2786 29.0287 51.1793 30.3827C51.1389 30.9341 50.8202 31.4687 50.6062 32.0353ZM48.339 29.5984C47.8832 30.0885 47.704 30.6576 47.7556 31.2902C47.7884 31.6921 47.9638 32.0302 48.3934 32.1856C48.8546 32.3524 49.2799 32.233 49.6246 31.9258C50.0871 31.5135 50.3233 30.9994 50.3601 30.4146C50.3897 29.9432 50.2985 29.4905 49.783 29.2673C49.2639 29.0426 48.789 29.1998 48.339 29.5984Z" fill="white"/>
<path d="M120.473 30.3905C120.941 30.6009 121.358 30.8206 121.473 31.3239C121.594 31.8476 121.321 32.3897 120.779 32.6317C120.075 32.9458 119.351 32.9492 118.655 32.6142C118.448 32.5143 118.229 32.341 118.133 32.1477C118.015 31.9127 117.972 31.6145 118.009 31.3584C118.019 31.291 118.442 31.278 118.665 31.2416C118.94 32.0897 119.32 32.3719 120.045 32.2086C120.275 32.1568 120.544 31.9565 120.643 31.7555C120.784 31.4679 120.515 31.2752 120.257 31.1518C119.929 30.9953 119.588 30.8632 119.261 30.704C118.716 30.4383 118.502 30.0902 118.552 29.5865C118.598 29.1204 118.972 28.6672 119.512 28.5946C119.97 28.5332 120.465 28.5419 120.912 28.6438C121.495 28.7766 121.752 29.2006 121.768 29.8411C121.553 29.8688 121.333 29.8972 121.074 29.9307C120.915 29.3123 120.495 29.0296 119.86 29.1613C119.657 29.2033 119.413 29.3873 119.343 29.5629C119.302 29.6662 119.535 29.9213 119.7 30.0354C119.919 30.1868 120.192 30.2672 120.473 30.3905Z" fill="white"/>
<path d="M114.035 31.21C114.23 30.3393 114.413 29.505 114.6 28.6547C114.848 28.6547 115.063 28.6547 115.304 28.6547C115.304 28.7954 115.304 28.9236 115.304 29.0874C115.39 29.0644 115.444 29.0545 115.494 29.0354C115.926 28.8716 116.347 28.6036 116.791 28.5632C117.626 28.4872 118.113 29.0244 117.972 29.8089C117.788 30.8277 117.546 31.8371 117.326 32.8664C117.04 32.8664 116.779 32.8664 116.487 32.8664C116.695 31.9096 116.915 30.9884 117.086 30.0593C117.13 29.8191 117.116 29.434 116.965 29.3304C116.771 29.1973 116.389 29.2116 116.127 29.2855C115.505 29.4608 115.206 29.9574 115.055 30.5129C114.846 31.2806 114.683 32.0597 114.493 32.8634C114.249 32.8634 114.005 32.8634 113.686 32.8634C113.8 32.3162 113.911 31.7813 114.035 31.21Z" fill="white"/>
<path d="M3.82906 29.1186C4.28291 28.9274 4.72205 28.6248 5.19376 28.569C6.09862 28.4619 6.59901 29.03 6.43462 29.8792C6.24361 30.8659 6.01568 31.8462 5.7982 32.8552C5.52475 32.8552 5.26524 32.8552 4.96126 32.8552C5.16591 31.9247 5.38376 31.0227 5.55203 30.1124C5.59932 29.8565 5.59529 29.4241 5.44797 29.3424C5.21107 29.211 4.80807 29.2273 4.52413 29.3182C3.9533 29.5008 3.67908 29.9815 3.53617 30.5055C3.35437 31.172 3.21501 31.8488 3.05599 32.5209C3.02894 32.6353 2.99506 32.7481 2.96306 32.8664C2.70196 32.8664 2.46873 32.8664 2.15527 32.8664C2.46587 31.4513 2.76936 30.0687 3.07796 28.6627C3.31602 28.6627 3.53101 28.6627 3.78269 28.6627C3.78269 28.7718 3.78269 28.8835 3.76606 29.0479C3.75627 29.1239 3.76311 29.1472 3.76996 29.1705C3.78966 29.1532 3.80936 29.1359 3.82906 29.1186Z" fill="white"/>
<path d="M10.75 32.32C10.7039 32.5136 10.6634 32.6695 10.6212 32.8319C10.349 32.8319 10.1013 32.8319 9.80794 32.8319C10.012 31.9065 10.2312 31.0136 10.394 30.1117C10.4415 29.8488 10.4262 29.4135 10.2652 29.3189C10.0399 29.1865 9.62071 29.2238 9.33841 29.3233C8.77856 29.5206 8.51205 29.9982 8.37069 30.5184C8.21056 31.1077 8.08721 31.7057 7.94405 32.2991C7.79173 32.9305 7.78977 32.93 7.00391 32.793C7.30954 31.4189 7.61496 30.0458 7.92373 28.6575C8.17309 28.6575 8.38818 28.6575 8.63178 28.6575C8.63898 28.8073 8.64553 28.9435 8.64951 29.0262C9.1131 28.8635 9.54985 28.6175 10.0106 28.5678C10.9441 28.4671 11.4509 29.0225 11.2821 29.8848C11.1252 30.6872 10.9325 31.4835 10.75 32.32Z" fill="white"/>
<path d="M96.6313 30.078C97.0974 28.9214 97.8682 28.4513 99.0466 28.5753C99.8095 28.6557 100.285 29.2047 100.208 29.9527C99.988 29.9527 99.764 29.9527 99.5111 29.9527C99.3925 29.5644 99.2176 29.1876 98.6782 29.1938C98.0981 29.2004 97.7035 29.5042 97.5439 30.0006C97.3948 30.4641 97.3208 30.9555 97.2731 31.4398C97.2375 31.8015 97.4396 32.153 97.8155 32.2023C98.1068 32.2404 98.4373 32.0677 98.7374 31.9572C98.8374 31.9204 98.9363 31.7969 98.9687 31.6942C99.1321 31.1751 99.5003 31.1842 99.9341 31.3341C99.8641 32.2016 98.9559 32.8976 97.9334 32.8653C97.0274 32.8367 96.434 32.2434 96.4445 31.3126C96.449 30.9119 96.5609 30.5123 96.6313 30.078Z" fill="white"/>
<path d="M17.5091 30.323C17.4166 29.7364 17.3287 29.189 17.2412 28.6447C17.9294 28.4778 17.951 28.4953 18.0472 29.1529C18.1772 30.0421 18.3134 30.9303 18.4649 31.9379C18.6712 31.5493 18.8272 31.2557 18.9831 30.962C19.3056 30.3549 19.6305 29.7491 19.9499 29.1403C20.2716 28.5272 20.2692 28.5259 21.0128 28.6104C20.9553 28.7399 20.9131 28.8559 20.855 28.9624C20.2536 30.0641 19.6495 31.1641 19.0467 32.2648C18.6827 32.9293 18.6832 32.9296 17.8919 32.7976C17.7669 31.9934 17.6402 31.1779 17.5091 30.323Z" fill="white"/>
<path d="M33.0132 31.004C32.7416 31.4381 32.443 31.8265 32.25 32.2551C31.993 32.8255 31.571 32.9657 30.9139 32.8032C30.6699 31.4405 30.4211 30.05 30.1729 28.6633C30.8969 28.4584 30.9865 28.512 31.0875 29.1339C31.2339 30.036 31.3922 30.9365 31.5634 31.9434C32.1665 30.9449 32.7451 30.0548 33.2463 29.1295C33.5115 28.6399 33.842 28.4552 34.4832 28.6339C33.9951 29.4223 33.5141 30.1993 33.0132 31.004Z" fill="white"/>
<path d="M54.2767 28.841C53.9896 28.8704 53.7026 28.8997 53.3734 28.9333C53.153 30.009 52.9282 31.1109 52.7014 32.2123C52.5529 32.9337 52.5517 32.9334 51.7246 32.7946C51.9861 31.5342 52.2474 30.2751 52.5161 28.9797C52.3029 28.9461 52.104 28.9149 51.8568 28.876C51.8985 28.6754 51.9362 28.4941 51.98 28.2835C52.3853 28.2951 52.6978 28.2857 52.7949 27.7397C53.0237 26.4537 53.6554 26.1435 54.9574 26.5987C54.912 26.8076 54.8654 27.0218 54.8198 27.2317C53.7001 27.2112 53.6227 27.2719 53.5894 28.2397C53.7875 28.2497 53.9878 28.2597 54.2305 28.3181C54.2742 28.5246 54.2754 28.6828 54.2767 28.841Z" fill="white"/>
<path d="M54.4586 29.0314C54.4289 28.8622 54.4277 28.7134 54.4266 28.5272C55.1164 28.4484 55.1164 28.4484 55.2655 27.7705C55.3598 27.3418 55.4848 27.2298 56.2177 26.9396C56.1228 27.4457 56.0323 27.9278 55.9368 28.4369C56.1716 28.4583 56.3602 28.4755 56.5728 28.4948C56.5767 28.8552 56.5559 29.1347 56.0869 29.1088C55.9722 29.1024 55.7687 29.2665 55.7401 29.3856C55.5559 30.1524 55.4085 30.9285 55.2498 31.7016C55.1825 32.0294 55.2826 32.2067 55.6429 32.1574C55.7278 32.1457 55.8157 32.1557 55.9034 32.1557C55.88 32.7937 55.7876 32.888 55.2432 32.8628C54.6775 32.8365 54.3549 32.5675 54.4283 32.0744C54.5601 31.1895 54.7581 30.3149 54.9271 29.4358C54.9439 29.3484 54.9518 29.2592 54.9676 29.1436C54.7981 29.1112 54.6426 29.0815 54.4586 29.0314Z" fill="white"/>
<path d="M27.7361 29.0723C27.5427 29.0766 27.3859 29.0766 27.1932 29.0766C27.0104 30.0008 26.8307 30.8921 26.6597 31.7853C26.6139 32.0246 26.702 32.1721 26.9587 32.1604C27.0717 32.1552 27.1851 32.1595 27.298 32.1595C27.28 32.7869 27.2061 32.8719 26.7064 32.8661C26.1441 32.8595 25.7999 32.573 25.8717 32.0707C25.9986 31.1827 26.1914 30.3051 26.3554 29.423C26.3717 29.3354 26.38 29.2461 26.396 29.1283C26.2328 29.0945 26.0835 29.0635 25.9081 29.0272C25.934 28.849 25.9575 28.6875 25.9857 28.4939C26.1569 28.4716 26.3243 28.4499 26.5497 28.4205C26.6216 27.7475 26.7859 27.0945 27.6033 26.9396C27.5154 27.4196 27.4288 27.8923 27.3334 28.4133C27.5543 28.4382 27.7456 28.4597 28.0175 28.4904C27.9244 28.71 27.8486 28.889 27.7361 29.0723Z" fill="white"/>
<path d="M105.429 32.6913C104.925 32.4041 105.064 32.0224 105.146 31.6719C105.341 30.8361 105.567 30.0053 105.79 29.1398C105.57 29.1004 105.38 29.0664 105.13 29.0216C105.17 28.8441 105.208 28.6736 105.25 28.4837C105.475 28.4661 105.675 28.4506 105.947 28.4294C106.079 27.7772 106.237 27.0894 107.313 26.9396C107.2 27.4276 107.087 27.9101 106.968 28.4215C107.258 28.4424 107.492 28.4593 107.758 28.4784C107.761 28.8369 107.741 29.1194 107.156 29.0933C107.013 29.087 106.76 29.251 106.725 29.3702C106.496 30.1386 106.313 30.9163 106.115 31.6911C106.032 32.0197 106.156 32.1973 106.604 32.1478C106.709 32.1361 106.819 32.1461 106.928 32.1461C106.89 32.8825 106.468 33.035 105.429 32.6913Z" fill="white"/>
<path d="M1.55489 26.4032C1.75179 26.4031 1.90653 26.4031 2.15517 26.4031C1.72406 28.5909 1.30448 30.7202 0.881559 32.8664C0.588244 32.8664 0.326735 32.8664 0 32.8664C0.136656 32.1519 0.265661 31.4622 0.400808 30.7739C0.655597 29.4763 0.907733 28.178 1.17755 26.8838C1.21739 26.6928 1.15551 26.3702 1.55489 26.4032Z" fill="white"/>
<path d="M92.9977 32.7482C92.7219 32.8105 92.4583 32.8355 92.1338 32.8664C92.5786 30.8501 93.0069 28.9086 93.4413 26.9396C93.7157 26.9396 93.9792 26.9396 94.289 26.9396C93.8581 28.8837 93.434 30.7973 92.9977 32.7482Z" fill="white"/>
<path d="M70.3861 29.2005C70.3056 29.2806 70.2354 29.3736 70.1714 29.3697C69.4375 29.3243 69.0861 29.461 68.8355 30.1333C68.5604 30.8714 68.4096 31.6544 68.2062 32.4183C68.1679 32.5618 68.1367 32.7072 68.0987 32.8664C67.8636 32.8664 67.6416 32.8664 67.3496 32.8664C67.6492 31.4521 67.9415 30.072 68.238 28.672C68.4688 28.672 68.6746 28.672 68.9066 28.672C68.9178 28.7946 68.9281 28.907 68.9456 29.0991C69.4377 28.6869 69.9212 28.3392 70.5824 28.72C70.5202 28.8721 70.4597 29.0202 70.3861 29.2005ZM68.8665 29.1541C68.8813 29.1608 68.8961 29.1674 68.9109 29.1741C68.9069 29.1566 68.903 29.1392 68.8665 29.1541Z" fill="white"/>
<path d="M108.611 28.5571C108.871 28.556 109.081 28.556 109.375 28.556C108.984 30.0259 108.607 31.4434 108.229 32.8664C107.886 32.8664 107.599 32.8664 107.22 32.8664C107.38 32.2409 107.531 31.6391 107.689 31.0383C107.869 30.3532 108.042 29.6667 108.246 28.986C108.292 28.8325 108.452 28.7002 108.611 28.5571Z" fill="white"/>
<path d="M28.1688 32.0585C28.3692 31.0703 28.5649 30.1201 28.7608 29.17C28.9015 28.4878 28.9016 28.4879 29.634 28.6336C29.3504 30.0407 29.067 31.4473 28.781 32.8664C28.525 32.8664 28.2955 32.8664 28.0176 32.8664C28.07 32.5911 28.1171 32.3438 28.1688 32.0585Z" fill="white"/>
<path d="M94.5391 31.5207C94.7448 30.5108 94.942 29.5389 95.1415 28.556C95.4011 28.556 95.6292 28.556 95.9054 28.556C95.6165 30.0096 95.3344 31.4295 95.0488 32.8664C94.799 32.8664 94.5699 32.8664 94.2891 32.8664C94.3722 32.4163 94.4515 31.9874 94.5391 31.5207Z" fill="white"/>
<path d="M108.835 26.4014C109.041 26.4009 109.203 26.4009 109.361 26.4009C109.433 27.4531 109.266 27.6265 108.298 27.3785C108.473 27.0306 108.632 26.7162 108.835 26.4014Z" fill="white"/>
<path d="M95.736 27.4734C95.5992 27.4784 95.4844 27.4784 95.3709 27.4784C95.3471 26.9515 95.3981 26.8983 95.905 26.96C95.8546 27.1342 95.8063 27.3013 95.736 27.4734Z" fill="white"/>
<path d="M29.8422 26.4009C29.9925 26.5068 30.1942 26.6414 30.1704 26.7126C30.085 26.9686 29.9753 27.255 29.7713 27.4264C29.6471 27.5309 29.3333 27.4457 29.1095 27.4457C29.0465 26.5898 29.166 26.415 29.8422 26.4009Z" fill="white"/>
<path d="M122.821 21.7093C123.019 22.3173 122.761 22.7074 122.216 22.9875C121.307 23.4552 120.429 23.9888 119.496 24.4038C118.663 24.7745 117.786 25.0725 116.903 25.3094C116.15 25.5111 115.365 25.639 114.587 25.6966C112.525 25.8491 110.466 25.7964 108.447 25.3003C107.757 25.131 107.099 24.8365 106.408 24.6772C105.026 24.3588 103.893 23.5752 102.733 22.8485C101.567 22.1182 100.575 21.1844 99.6732 20.1578C99.5969 20.071 99.538 19.9642 99.4482 19.895C99.0697 19.6032 99.0649 19.2797 99.3774 18.8817C98.6111 18.6854 98.6188 18.0237 98.6058 17.4883C98.582 16.505 98.6116 15.5038 98.7791 14.5368C99.0027 13.2463 99.2935 11.953 99.718 10.7144C100.035 9.78987 100.572 8.92931 101.076 8.07669C102.416 5.80815 104.208 3.91742 106.4 2.44043C107.385 1.7768 108.526 1.30931 109.643 0.868242C110.558 0.507437 111.537 0.297858 112.498 0.0632608C112.832 -0.0183129 113.24 -0.106523 113.415 0.392931C112.53 1.65086 111.704 2.87568 111.403 4.34017C111.194 5.35478 111.071 6.38637 110.913 7.4481C110.893 7.92483 110.822 8.36754 110.857 8.80216C110.982 10.3686 110.951 11.9409 110.259 13.3653C109.765 14.3801 109.117 15.385 108.316 16.1793C106.917 17.5662 105.172 18.4389 103.164 18.7237C103.032 18.7424 102.91 18.8294 102.783 18.8846C102.797 18.9382 102.811 18.9918 102.825 19.0454C103.301 18.9566 103.79 18.9091 104.251 18.7711C105.544 18.384 106.74 17.7835 107.914 17.1286C108.919 16.5675 109.929 15.9977 110.987 15.5474C112.212 15.0266 113.536 15.0697 114.818 15.3048C115.699 15.4663 116.633 15.5074 117.424 16.0237C117.541 16.0999 117.715 16.0909 117.891 16.1389C118.075 16.2822 118.218 16.4321 118.392 16.5296C119.515 17.162 120.414 18.0574 121.187 19.0379C121.83 19.8535 122.283 20.8133 122.821 21.7093ZM119.445 24.1594C119.599 24.0899 119.759 24.0298 119.907 23.9494C120.69 23.5237 121.478 23.1049 122.248 22.6576C122.532 22.4926 122.733 22.2866 122.49 21.8882C122.067 21.1932 121.774 20.4161 121.311 19.7508C119.855 17.6585 117.925 16.1878 115.348 15.6498C113.793 15.3254 112.239 15.279 110.773 15.9776C109.649 16.5127 108.548 17.1013 107.475 17.729C106.207 18.4708 104.871 19.0463 103.417 19.2434C102.331 19.3905 101.218 19.345 100.118 19.3871C99.9435 19.3937 99.7694 19.4098 99.5776 19.4226C99.6003 19.5388 99.5925 19.6026 99.621 19.6298C100.554 20.5199 101.407 21.5181 102.448 22.2634C103.568 23.0654 104.84 23.6805 106.095 24.2784C106.833 24.63 107.652 24.8553 108.459 25.0217C110.257 25.3923 112.08 25.6168 113.922 25.4342C114.877 25.3395 115.839 25.2237 116.772 25.0109C117.656 24.8094 118.507 24.4687 119.445 24.1594ZM109.612 13.9879C110.262 12.876 110.649 11.6917 110.614 10.3974C110.589 9.47466 110.51 8.55156 110.527 7.62993C110.553 6.25657 110.63 4.88219 111.276 3.61548C111.719 2.74799 112.161 1.87996 112.602 1.01179C112.69 0.839742 112.774 0.665996 112.895 0.420193C112.611 0.420193 112.399 0.372319 112.22 0.428016C111.118 0.771257 109.999 1.07773 108.932 1.50853C106.251 2.59151 104.139 4.40415 102.416 6.65688C101.13 8.33891 100.235 10.2153 99.5691 12.2207C98.9505 14.0826 98.9306 15.9757 98.9675 17.8876C98.9747 18.2602 99.1794 18.4582 99.5919 18.4378C99.9122 18.422 100.241 18.419 100.556 18.4707C101.821 18.6788 103.057 18.4722 104.249 18.1181C105.057 17.878 105.81 17.4468 106.569 17.066C107.911 16.3934 108.826 15.2983 109.612 13.9879Z" fill="#838383"/>
<path d="M121.316 5.31522C121.369 5.4004 121.423 5.48557 121.508 5.61858C121.61 5.7453 121.68 5.82417 121.75 5.90305C121.75 5.90305 121.754 5.89715 121.755 5.93433C121.853 6.09202 121.951 6.21252 122.049 6.33302C122.049 6.33302 122.057 6.36932 122.068 6.42134C122.245 6.69628 122.411 6.91919 122.577 7.1421C122.577 7.1421 122.582 7.17932 122.592 7.23318C122.805 7.6432 123.008 7.99935 123.212 8.3555C123.283 8.52511 123.355 8.69472 123.435 8.93596C123.61 9.36569 123.777 9.72379 123.943 10.0819C123.991 10.2773 124.038 10.4727 124.089 10.736C124.127 10.8529 124.162 10.9017 124.197 10.9506C124.229 11.0938 124.26 11.2369 124.298 11.4527C124.371 11.7052 124.437 11.8851 124.504 12.065C124.509 12.1387 124.514 12.2124 124.522 12.3622C124.611 12.7311 124.699 13.024 124.786 13.3168C124.787 13.3524 124.787 13.3879 124.771 13.4676C124.776 13.5686 124.798 13.6256 124.819 13.6826C124.843 13.9246 124.867 14.1667 124.874 14.4711C124.904 14.633 124.952 14.7325 124.999 14.832C124.998 14.9287 124.997 15.0253 124.972 15.1862C124.949 15.3704 124.949 15.4903 124.949 15.6103C124.961 15.7417 124.974 15.8731 124.956 16.0581C124.915 16.4829 124.904 16.8543 124.892 17.2256C124.892 17.2914 124.892 17.3571 124.859 17.4748C124.764 17.8995 124.702 18.2722 124.64 18.645C124.561 18.9855 124.482 19.326 124.374 19.731C124.119 20.392 123.894 20.9886 123.645 21.6486C123.46 21.4978 123.387 21.4515 123.332 21.3901C123.277 21.3271 123.231 21.2528 123.194 21.1775C122.2 19.1517 120.84 17.4115 118.837 16.2014C118.15 15.7862 117.406 15.4571 116.669 15.0832C116.65 15.0777 116.61 15.0737 116.599 15.0405C116.125 14.7363 115.662 14.4652 115.187 14.1683C115.123 14.1172 115.071 14.0919 115.007 14.035C114.782 13.8628 114.57 13.7224 114.338 13.5747C114.32 13.5674 114.28 13.5622 114.269 13.5303C114.15 13.4245 114.043 13.3504 113.935 13.2771C113.934 13.2779 113.936 13.2766 113.924 13.2464C113.82 13.1605 113.728 13.1048 113.631 13.0306C113.627 13.0121 113.609 12.9784 113.599 12.9457C113.452 12.743 113.314 12.5737 113.179 12.4026C112.872 12.0134 112.566 11.6232 112.257 11.2135C112.254 11.1936 112.241 11.1556 112.244 11.1191C112.142 10.9038 112.037 10.7251 111.931 10.5135C111.918 10.4381 111.908 10.3955 111.902 10.3147C111.76 9.71011 111.598 9.14679 111.468 8.57682C110.949 6.30158 111.495 4.18513 112.602 2.18148C113.015 1.43333 113.573 0.758031 114.064 0.0495154C114.163 0.0242236 114.262 -0.0010685 114.407 3.48343e-05C114.909 0.236995 115.363 0.44756 115.818 0.658125C115.818 0.658125 115.826 0.641061 115.831 0.683368C116.078 0.837549 116.319 0.949424 116.56 1.0613C116.56 1.0613 116.571 1.04766 116.575 1.08794C116.816 1.24252 117.054 1.35683 117.292 1.47115C117.292 1.47115 117.304 1.45281 117.307 1.49634C117.664 1.77871 118.019 2.01755 118.375 2.25639C118.414 2.29351 118.454 2.33063 118.531 2.40763C118.673 2.52872 118.777 2.60992 118.881 2.69113C118.929 2.74989 118.977 2.80865 119.062 2.90693C119.175 3.0195 119.251 3.09255 119.326 3.16559C119.479 3.32604 119.632 3.48648 119.82 3.6965C120.023 3.89643 120.191 4.04678 120.359 4.19714C120.359 4.19714 120.377 4.18485 120.375 4.22492C120.472 4.34989 120.571 4.4348 120.67 4.51971C120.692 4.56875 120.714 4.61779 120.766 4.71411C120.863 4.81302 120.929 4.86464 120.994 4.91627C121.017 4.96565 121.039 5.01504 121.091 5.11209C121.185 5.21158 121.251 5.2634 121.316 5.31522ZM112.235 3.6188C112.075 4.24715 111.876 4.86924 111.763 5.50537C111.604 6.40701 111.419 7.31366 111.684 8.23459C111.794 8.61746 111.822 9.02166 111.922 9.40784C112.281 10.794 112.982 12.0378 114.104 12.9481C115.135 13.7843 116.341 14.4255 117.486 15.1285C118.043 15.4702 118.67 15.7118 119.207 16.0766C120.894 17.2219 122.196 18.6949 123.13 20.4642C123.24 20.6733 123.383 20.8667 123.536 21.1068C126.521 14.9986 123.311 3.91292 114.268 0.351758C113.333 1.25469 112.737 2.36473 112.235 3.6188Z" fill="#F02A00"/>
<path d="M119.669 23.9693C118.758 24.2554 117.9 24.5866 117.008 24.7824C116.066 24.9892 115.096 25.1018 114.131 25.1938C112.272 25.3713 110.433 25.1531 108.619 24.7929C107.804 24.6311 106.977 24.4122 106.233 24.0705C104.966 23.4894 103.682 22.8915 102.552 22.112C101.501 21.3876 100.64 20.4175 99.6991 19.5523C99.6703 19.5259 99.6782 19.4639 99.6553 19.351C99.8488 19.3385 100.024 19.3229 100.201 19.3164C101.311 19.2756 102.434 19.3198 103.53 19.1768C104.997 18.9853 106.346 18.4259 107.625 17.7049C108.708 17.0949 109.819 16.5227 110.953 16.0027C112.433 15.3237 114.001 15.3688 115.57 15.6841C118.171 16.2069 120.119 17.6364 121.588 19.6699C122.056 20.3166 122.351 21.0719 122.778 21.7474C123.023 22.1345 122.82 22.3348 122.534 22.4951C121.756 22.9299 120.962 23.3369 120.171 23.7507C120.022 23.8288 119.861 23.8873 119.669 23.9693Z" fill="#373742"/>
<path d="M109.605 14.0514C108.846 15.3206 107.945 16.4089 106.624 17.0774C105.876 17.4558 105.134 17.8844 104.338 18.123C103.165 18.4749 101.948 18.6802 100.701 18.4734C100.391 18.4219 100.068 18.4249 99.752 18.4407C99.3458 18.4609 99.1441 18.2642 99.1371 17.8938C99.1007 15.9938 99.1204 14.1124 99.7296 12.262C100.386 10.2691 101.266 8.40425 102.534 6.73262C104.23 4.49383 106.311 2.6924 108.951 1.61612C110.001 1.18799 111.104 0.883413 112.189 0.542295C112.365 0.486942 112.574 0.534521 112.854 0.534521C112.735 0.778803 112.652 0.951474 112.566 1.12246C112.131 1.98526 111.696 2.84792 111.26 3.71005C110.623 4.96891 110.547 6.33479 110.522 7.69966C110.505 8.61559 110.583 9.53297 110.608 10.45C110.642 11.7363 110.261 12.9132 109.605 14.0514Z" fill="#888890"/>
<path d="M112.473 3.72341C112.949 2.51516 113.527 1.41246 114.434 0.515503C123.202 4.0531 126.315 15.0654 123.42 21.1332C123.272 20.8947 123.133 20.7026 123.026 20.4948C122.121 18.7373 120.858 17.274 119.223 16.1363C118.702 15.7739 118.094 15.5339 117.554 15.1945C116.444 14.4961 115.274 13.8592 114.275 13.0285C113.187 12.1243 112.507 10.8886 112.159 9.51166C112.062 9.12805 112.035 8.72651 111.928 8.34618C111.671 7.43134 111.851 6.53069 112.005 5.63502C112.114 5.0031 112.307 4.38513 112.473 3.72341Z" fill="#E55F42"/>
</svg>
